<svg xmlns="http://www.w3.org/2000/svg" width="24" height="24" viewBox="0 0 24 24">
  <defs>
    <style>
      .cls-1 {
        fill: #b99403;
        fill-rule: evenodd;
      }
    </style>
  </defs>
  <path class="cls-1" d="M23.736,20.3L15.46,12.023,21.585,5.9l2.17-2.17A1.458,1.458,0,0,1,24,4.5v15A1.458,1.458,0,0,1,23.736,20.3ZM21.055,5.368L18.261,8.162l-5.346,5.346-0.938.938L2.945,5.415l-1.5-1.5L0.756,3.226A1.458,1.458,0,0,1,1.5,3h21a1.46,1.46,0,0,1,.716.207l-0.755.755ZM0.915,4.445L8.47,12,0.226,20.244A1.459,1.459,0,0,1,0,19.5V4.5A1.458,1.458,0,0,1,.226,3.756L0.915,4.445h0ZM9,12.53l0.317,0.317L9.43,12.96l1.031,1.031,1.5,1.5,0.063-.063,0.016,0.016,1.406-1.406,1.484-1.485,8.258,8.258A1.461,1.461,0,0,1,22.5,21H1.5a1.459,1.459,0,0,1-.744-0.226Z"/>
</svg>
