<svg xmlns="http://www.w3.org/2000/svg" width="23" height="23" viewBox="0 0 23 23">
  <defs>
    <style>
      .cls-1 {
        fill: #b99403;
        fill-rule: evenodd;
      }
    </style>
  </defs>
  <path class="cls-1" d="M15.958,3.578a2.444,2.444,0,1,0,3.46,3.453l1.4-1.4A4.829,4.829,0,0,1,21,6.883a4.831,4.831,0,0,1-6.16,4.7c-0.014.014-.018,0.034-0.032,0.048l-8.65,8.633A2.444,2.444,0,0,1,2.7,16.808l8.65-8.633c0.015-.015.035-0.019,0.05-0.033a4.825,4.825,0,0,1-.185-1.259,4.832,4.832,0,0,1,6.145-4.7ZM4.485,17.871a0.61,0.61,0,1,0,.612.61A0.611,0.611,0,0,0,4.485,17.871Z"/>
</svg>
