<svg xmlns="http://www.w3.org/2000/svg" width="15" height="15" viewBox="0 0 15 15">
  <defs>
    <style>
      .cls-1 {
        fill: #f5c506;
        fill-rule: evenodd;
      }
    </style>
  </defs>
  <path class="cls-1" d="M9.371,7.977V7.019H15V7.977H9.371Zm-0.186-2.8L14.26,2.749l0.416,0.863L9.6,6.041ZM8.751,3.041L12.239,0l0.52,0.593L9.27,3.635ZM3.261,10.347v-5.7c1.448-1.32,3.208-2,4.415-3.469V13.817C6.469,12.342,4.709,11.666,3.261,10.347ZM0,4.659H2.915V10.3H0V4.659Zm12.759,9.747L12.24,15,8.751,11.958l0.52-.593Zm-3.35-5.4,5.075,2.428L14.07,12.3,8.993,9.87Z"/>
</svg>
